<?xml version="1.0" encoding="utf-8"?>
<!-- Generator: Adobe Illustrator 16.0.0, SVG Export Plug-In . SVG Version: 6.00 Build 0)  -->
<!DOCTYPE svg PUBLIC "-//W3C//DTD SVG 1.1//EN" "http://www.w3.org/Graphics/SVG/1.1/DTD/svg11.dtd">
<svg version="1.1" id="svg1936" xmlns:svg="http://www.w3.org/2000/svg"
	 xmlns="http://www.w3.org/2000/svg" xmlns:xlink="http://www.w3.org/1999/xlink" x="0px" y="0px" width="603px" height="182px"
	 viewBox="0 0 603 182" enable-background="new 0 0 603 182" xml:space="preserve">
<path id="path8" d="M421.486,150.601c-34.072-26.125-83.685-40.365-126.513-40.776c-60.053-0.576-114.332,21.555-155.595,58.834
	c-3.242,2.932-0.401,6.997,3.478,4.726c44.391-25.765,99.118-40.996,155.495-40.455c38.021,0.365,79.771,8.787,118.068,25.804
	C422.206,161.306,427.127,154.954,421.486,150.601"/>
<path id="path10" d="M430.078,166.27c-4.426,5.672-29.023,2.421-40.065,0.979c-3.364-0.452-3.906,2.532-0.894,4.71
	c19.48,14.267,51.705,10.512,55.503,5.828c3.799-4.708-0.616-37.654-18.896-53.535c-2.805-2.438-5.517-1.18-4.288,2.031
	C425.475,136.86,434.529,160.57,430.078,166.27"/>
<rect x="34" y="11.5" fill="none" width="540" height="85"/>
<text transform="matrix(1 0 0 1 34 93.1494)" font-family="'MyriadPro-Regular'" font-size="115">CRUDazon</text>
</svg>
